M48
; DRILL file {KiCad 9.0.4} date 2025-09-19T23:55:12-0600
; FORMAT={-:-/ absolute / metric / decimal}
; #@! TF.CreationDate,2025-09-19T23:55:12-06:00
; #@! TF.GenerationSoftware,Kicad,Pcbnew,9.0.4
; #@! TF.FileFunction,Plated,1,2,PTH
FMAT,2
METRIC
; #@! TA.AperFunction,Plated,PTH,ComponentDrill
T1C0.800
; #@! TA.AperFunction,Plated,PTH,ComponentDrill
T2C1.000
; #@! TA.AperFunction,Plated,PTH,ComponentDrill
T3C1.500
%
G90
G05
T1
X111.76Y-104.14
X111.76Y-111.76
X121.92Y-104.14
X121.92Y-111.76
T2
X106.68Y-104.14
X106.68Y-106.68
X106.68Y-109.22
X127.0Y-101.6
X127.0Y-104.14
X127.0Y-106.68
X127.0Y-109.22
X127.0Y-111.76
X127.0Y-114.3
X127.0Y-116.84
X127.0Y-119.38
X149.86Y-101.6
X149.86Y-104.14
X149.86Y-106.68
X149.86Y-109.22
X149.86Y-111.76
X149.86Y-114.3
X149.86Y-116.84
X149.86Y-119.38
T3
X108.85Y-119.755
X114.3Y-119.755
X119.75Y-119.755
M30
