%TF.GenerationSoftware,KiCad,Pcbnew,9.0.4*%
%TF.CreationDate,2025-09-20T13:19:42-06:00*%
%TF.ProjectId,esp12-magicfit2-controller-pcb,65737031-322d-46d6-9167-696366697432,rev?*%
%TF.SameCoordinates,Original*%
%TF.FileFunction,Copper,L2,Bot*%
%TF.FilePolarity,Positive*%
%FSLAX46Y46*%
G04 Gerber Fmt 4.6, Leading zero omitted, Abs format (unit mm)*
G04 Created by KiCad (PCBNEW 9.0.4) date 2025-09-20 13:19:42*
%MOMM*%
%LPD*%
G01*
G04 APERTURE LIST*
%TA.AperFunction,ComponentPad*%
%ADD10C,2.000000*%
%TD*%
%TA.AperFunction,ComponentPad*%
%ADD11R,2.000000X2.000000*%
%TD*%
%TA.AperFunction,ComponentPad*%
%ADD12R,2.500000X4.500000*%
%TD*%
%TA.AperFunction,ComponentPad*%
%ADD13O,2.500000X4.500000*%
%TD*%
%TA.AperFunction,ComponentPad*%
%ADD14R,1.700000X1.700000*%
%TD*%
%TA.AperFunction,ComponentPad*%
%ADD15C,1.700000*%
%TD*%
%TA.AperFunction,Conductor*%
%ADD16C,0.500000*%
%TD*%
G04 APERTURE END LIST*
D10*
%TO.P,R2,1*%
%TO.N,Net-(Q1-B)*%
X111760000Y-111760000D03*
%TO.P,R2,2*%
%TO.N,Net-(J1-Pin_5)*%
X121920000Y-111760000D03*
%TD*%
D11*
%TO.P,J2,1,Pin_1*%
%TO.N,unconnected-(J2-Pin_1-Pad1)*%
X149860000Y-101600000D03*
D10*
%TO.P,J2,2,Pin_2*%
%TO.N,unconnected-(J2-Pin_2-Pad2)*%
X149860000Y-104140000D03*
%TO.P,J2,3,Pin_3*%
%TO.N,unconnected-(J2-Pin_3-Pad3)*%
X149860000Y-106680000D03*
%TO.P,J2,4,Pin_4*%
%TO.N,unconnected-(J2-Pin_4-Pad4)*%
X149860000Y-109220000D03*
%TO.P,J2,5,Pin_5*%
%TO.N,unconnected-(J2-Pin_5-Pad5)*%
X149860000Y-111760000D03*
%TO.P,J2,6,Pin_6*%
%TO.N,unconnected-(J2-Pin_6-Pad6)*%
X149860000Y-114300000D03*
%TO.P,J2,7,Pin_7*%
%TO.N,unconnected-(J2-Pin_7-Pad7)*%
X149860000Y-116840000D03*
%TO.P,J2,8,Pin_8*%
%TO.N,unconnected-(J2-Pin_8-Pad8)*%
X149860000Y-119380000D03*
%TD*%
%TO.P,R1,1*%
%TO.N,+5V*%
X121920000Y-104140000D03*
%TO.P,R1,2*%
%TO.N,Net-(J3-Pin_2)*%
X111760000Y-104140000D03*
%TD*%
D12*
%TO.P,J3,1,Pin_1*%
%TO.N,+5V*%
X108850000Y-119755000D03*
D13*
%TO.P,J3,2,Pin_2*%
%TO.N,Net-(J3-Pin_2)*%
X114300000Y-119755000D03*
%TO.P,J3,3,Pin_3*%
%TO.N,GND*%
X119750000Y-119755000D03*
%TD*%
D14*
%TO.P,Q1,1,E*%
%TO.N,GND*%
X106680000Y-104140000D03*
D10*
%TO.P,Q1,2,B*%
%TO.N,Net-(Q1-B)*%
X106680000Y-106680000D03*
%TO.P,Q1,3,C*%
%TO.N,Net-(J3-Pin_2)*%
X106680000Y-109220000D03*
%TD*%
D11*
%TO.P,J1,1,Pin_1*%
%TO.N,+5V*%
X127000000Y-101600000D03*
D15*
%TO.P,J1,2,Pin_2*%
%TO.N,GND*%
X127000000Y-104140000D03*
D10*
%TO.P,J1,3,Pin_3*%
%TO.N,unconnected-(J1-Pin_3-Pad3)*%
X127000000Y-106680000D03*
%TO.P,J1,4,Pin_4*%
%TO.N,unconnected-(J1-Pin_4-Pad4)*%
X127000000Y-109220000D03*
%TO.P,J1,5,Pin_5*%
%TO.N,Net-(J1-Pin_5)*%
X127000000Y-111760000D03*
%TO.P,J1,6,Pin_6*%
%TO.N,unconnected-(J1-Pin_6-Pad6)*%
X127000000Y-114300000D03*
%TO.P,J1,7,Pin_7*%
%TO.N,unconnected-(J1-Pin_7-Pad7)*%
X127000000Y-116840000D03*
%TO.P,J1,8,Pin_8*%
%TO.N,unconnected-(J1-Pin_8-Pad8)*%
X127000000Y-119380000D03*
%TD*%
D16*
%TO.N,Net-(J1-Pin_5)*%
X121920000Y-111760000D02*
X127000000Y-111760000D01*
%TO.N,+5V*%
X130175000Y-102870000D02*
X128905000Y-101600000D01*
X110490000Y-124460000D02*
X128905000Y-124460000D01*
X128905000Y-124460000D02*
X130175000Y-123190000D01*
X121920000Y-104140000D02*
X124460000Y-101600000D01*
X130175000Y-123190000D02*
X130175000Y-102870000D01*
X108850000Y-119755000D02*
X108850000Y-122820000D01*
X128905000Y-101600000D02*
X127000000Y-101600000D01*
X124460000Y-101600000D02*
X127000000Y-101600000D01*
X108850000Y-122820000D02*
X110490000Y-124460000D01*
%TO.N,Net-(J3-Pin_2)*%
X109220000Y-109220000D02*
X111760000Y-106680000D01*
X114300000Y-119755000D02*
X114300000Y-119380000D01*
X106680000Y-111760000D02*
X106680000Y-109220000D01*
X111760000Y-106680000D02*
X111760000Y-104140000D01*
X114300000Y-119380000D02*
X106680000Y-111760000D01*
X106680000Y-109220000D02*
X109220000Y-109220000D01*
%TO.N,Net-(Q1-B)*%
X106680000Y-106680000D02*
X108585000Y-106680000D01*
X108585000Y-106680000D02*
X109220000Y-106045000D01*
X109220000Y-106045000D02*
X109220000Y-103505000D01*
X113665000Y-109855000D02*
X111760000Y-111760000D01*
X110490000Y-102235000D02*
X113030000Y-102235000D01*
X113665000Y-102870000D02*
X113665000Y-109855000D01*
X109220000Y-103505000D02*
X110490000Y-102235000D01*
X113030000Y-102235000D02*
X113665000Y-102870000D01*
%TD*%
%TA.AperFunction,Conductor*%
%TO.N,GND*%
G36*
X151842539Y-99580185D02*
G01*
X151888294Y-99632989D01*
X151899500Y-99684500D01*
X151899500Y-128915500D01*
X151879815Y-128982539D01*
X151827011Y-129028294D01*
X151775500Y-129039500D01*
X104764500Y-129039500D01*
X104697461Y-129019815D01*
X104651706Y-128967011D01*
X104640500Y-128915500D01*
X104640500Y-117457135D01*
X107099500Y-117457135D01*
X107099500Y-122052870D01*
X107099501Y-122052876D01*
X107105908Y-122112483D01*
X107156202Y-122247328D01*
X107156206Y-122247335D01*
X107242452Y-122362544D01*
X107242455Y-122362547D01*
X107357664Y-122448793D01*
X107357671Y-122448797D01*
X107402618Y-122465561D01*
X107492517Y-122499091D01*
X107552127Y-122505500D01*
X107975500Y-122505499D01*
X108042539Y-122525183D01*
X108088294Y-122577987D01*
X108099500Y-122629499D01*
X108099500Y-122893918D01*
X108099500Y-122893920D01*
X108099499Y-122893920D01*
X108128340Y-123038907D01*
X108128343Y-123038917D01*
X108184914Y-123175492D01*
X108217812Y-123224727D01*
X108217813Y-123224730D01*
X108267046Y-123298414D01*
X108267052Y-123298421D01*
X110011580Y-125042948D01*
X110011584Y-125042951D01*
X110134498Y-125125080D01*
X110134511Y-125125087D01*
X110271082Y-125181656D01*
X110271087Y-125181658D01*
X110271091Y-125181658D01*
X110271092Y-125181659D01*
X110416079Y-125210500D01*
X110416082Y-125210500D01*
X128978920Y-125210500D01*
X129076462Y-125191096D01*
X129123913Y-125181658D01*
X129260495Y-125125084D01*
X129309729Y-125092186D01*
X129383416Y-125042952D01*
X130757951Y-123668416D01*
X130840084Y-123545495D01*
X130896658Y-123408913D01*
X130925500Y-123263918D01*
X130925500Y-123116083D01*
X130925500Y-102796082D01*
X130925500Y-102796080D01*
X130925500Y-102796079D01*
X130896659Y-102651092D01*
X130896658Y-102651088D01*
X130896658Y-102651087D01*
X130895326Y-102647872D01*
X130840087Y-102514511D01*
X130840080Y-102514498D01*
X130757952Y-102391585D01*
X130716867Y-102350500D01*
X130653416Y-102287049D01*
X129383418Y-101017049D01*
X129383416Y-101017047D01*
X129334092Y-100984091D01*
X129301355Y-100962218D01*
X129260495Y-100934916D01*
X129260494Y-100934915D01*
X129260492Y-100934914D01*
X129260490Y-100934913D01*
X129123917Y-100878343D01*
X129123907Y-100878340D01*
X128978920Y-100849500D01*
X128978918Y-100849500D01*
X128624499Y-100849500D01*
X128615813Y-100846949D01*
X128606852Y-100848238D01*
X128582811Y-100837259D01*
X128557460Y-100829815D01*
X128551532Y-100822974D01*
X128543296Y-100819213D01*
X128529006Y-100796978D01*
X128511705Y-100777011D01*
X128509417Y-100766496D01*
X128505522Y-100760435D01*
X128500499Y-100725500D01*
X128500499Y-100552135D01*
X148359500Y-100552135D01*
X148359500Y-102647870D01*
X148359501Y-102647876D01*
X148365908Y-102707483D01*
X148416202Y-102842328D01*
X148416206Y-102842335D01*
X148502452Y-102957544D01*
X148502455Y-102957547D01*
X148617664Y-103043793D01*
X148625454Y-103048047D01*
X148623646Y-103051357D01*
X148665351Y-103082449D01*
X148689897Y-103147865D01*
X148675180Y-103216167D01*
X148666549Y-103229840D01*
X148576659Y-103353563D01*
X148469433Y-103564003D01*
X148396446Y-103788631D01*
X148359500Y-104021902D01*
X148359500Y-104258097D01*
X148396446Y-104491368D01*
X148469433Y-104715996D01*
X148576657Y-104926433D01*
X148715483Y-105117510D01*
X148882490Y-105284517D01*
X148917127Y-105309683D01*
X148959792Y-105365013D01*
X148965771Y-105434626D01*
X148933165Y-105496421D01*
X148917130Y-105510315D01*
X148913943Y-105512631D01*
X148882488Y-105535484D01*
X148715485Y-105702487D01*
X148715485Y-105702488D01*
X148715483Y-105702490D01*
X148681104Y-105749809D01*
X148576657Y-105893566D01*
X148469433Y-106104003D01*
X148396446Y-106328631D01*
X148359500Y-106561902D01*
X148359500Y-106798097D01*
X148396446Y-107031368D01*
X148469433Y-107255996D01*
X148543653Y-107401659D01*
X148576657Y-107466433D01*
X148715483Y-107657510D01*
X148882490Y-107824517D01*
X148917127Y-107849683D01*
X148959792Y-107905013D01*
X148965771Y-107974626D01*
X148933165Y-108036421D01*
X148917130Y-108050315D01*
X148899365Y-108063222D01*
X148882488Y-108075484D01*
X148715485Y-108242487D01*
X148715485Y-108242488D01*
X148715483Y-108242490D01*
X148655862Y-108324550D01*
X148576657Y-108433566D01*
X148469433Y-108644003D01*
X148396446Y-108868631D01*
X148359500Y-109101902D01*
X148359500Y-109338097D01*
X148396446Y-109571368D01*
X148469433Y-109795996D01*
X148543653Y-109941659D01*
X148576657Y-110006433D01*
X148715483Y-110197510D01*
X148882490Y-110364517D01*
X148917127Y-110389683D01*
X148959792Y-110445013D01*
X148965771Y-110514626D01*
X148933165Y-110576421D01*
X148917130Y-110590315D01*
X148913943Y-110592631D01*
X148882488Y-110615484D01*
X148715485Y-110782487D01*
X148715485Y-110782488D01*
X148715483Y-110782490D01*
X148655862Y-110864550D01*
X148576657Y-110973566D01*
X148469433Y-111184003D01*
X148396446Y-111408631D01*
X148359500Y-111641902D01*
X148359500Y-111878097D01*
X148396446Y-112111368D01*
X148469433Y-112335996D01*
X148558348Y-112510500D01*
X148576657Y-112546433D01*
X148715483Y-112737510D01*
X148882490Y-112904517D01*
X148917127Y-112929683D01*
X148959792Y-112985013D01*
X148965771Y-113054626D01*
X148933165Y-113116421D01*
X148917130Y-113130315D01*
X148899365Y-113143222D01*
X148882488Y-113155484D01*
X148715485Y-113322487D01*
X148715485Y-113322488D01*
X148715483Y-113322490D01*
X148655862Y-113404550D01*
X148576657Y-113513566D01*
X148469433Y-113724003D01*
X148396446Y-113948631D01*
X148359500Y-114181902D01*
X148359500Y-114418097D01*
X148396446Y-114651368D01*
X148469433Y-114875996D01*
X148576657Y-115086433D01*
X148715483Y-115277510D01*
X148882490Y-115444517D01*
X148917127Y-115469683D01*
X148959792Y-115525013D01*
X148965771Y-115594626D01*
X148933165Y-115656421D01*
X148917130Y-115670315D01*
X148899365Y-115683222D01*
X148882488Y-115695484D01*
X148715485Y-115862487D01*
X148715485Y-115862488D01*
X148715483Y-115862490D01*
X148655862Y-115944550D01*
X148576657Y-116053566D01*
X148469433Y-116264003D01*
X148396446Y-116488631D01*
X148359500Y-116721902D01*
X148359500Y-116958097D01*
X148396446Y-117191368D01*
X148469433Y-117415996D01*
X148490392Y-117457129D01*
X148576657Y-117626433D01*
X148715483Y-117817510D01*
X148882490Y-117984517D01*
X148917127Y-118009683D01*
X148959792Y-118065013D01*
X148965771Y-118134626D01*
X148933165Y-118196421D01*
X148917130Y-118210315D01*
X148899365Y-118223222D01*
X148882488Y-118235484D01*
X148715485Y-118402487D01*
X148715485Y-118402488D01*
X148715483Y-118402490D01*
X148655862Y-118484550D01*
X148576657Y-118593566D01*
X148469433Y-118804003D01*
X148396446Y-119028631D01*
X148359500Y-119261902D01*
X148359500Y-119498097D01*
X148396446Y-119731368D01*
X148469433Y-119955996D01*
X148576657Y-120166433D01*
X148715483Y-120357510D01*
X148882490Y-120524517D01*
X149073567Y-120663343D01*
X149172991Y-120714002D01*
X149284003Y-120770566D01*
X149284005Y-120770566D01*
X149284008Y-120770568D01*
X149404412Y-120809689D01*
X149508631Y-120843553D01*
X149741903Y-120880500D01*
X149741908Y-120880500D01*
X149978097Y-120880500D01*
X150211368Y-120843553D01*
X150435992Y-120770568D01*
X150646433Y-120663343D01*
X150837510Y-120524517D01*
X151004517Y-120357510D01*
X151143343Y-120166433D01*
X151250568Y-119955992D01*
X151323553Y-119731368D01*
X151360500Y-119498097D01*
X151360500Y-119261902D01*
X151323553Y-119028631D01*
X151250566Y-118804003D01*
X151143342Y-118593566D01*
X151004517Y-118402490D01*
X150837510Y-118235483D01*
X150802872Y-118210317D01*
X150760207Y-118154989D01*
X150754228Y-118085375D01*
X150786833Y-118023580D01*
X150802873Y-118009682D01*
X150837510Y-117984517D01*
X151004517Y-117817510D01*
X151143343Y-117626433D01*
X151250568Y-117415992D01*
X151323553Y-117191368D01*
X151330509Y-117147452D01*
X151360500Y-116958097D01*
X151360500Y-116721902D01*
X151323553Y-116488631D01*
X151250566Y-116264003D01*
X151143342Y-116053566D01*
X151004517Y-115862490D01*
X150837510Y-115695483D01*
X150802872Y-115670317D01*
X150760207Y-115614989D01*
X150754228Y-115545375D01*
X150786833Y-115483580D01*
X150802873Y-115469682D01*
X150837510Y-115444517D01*
X151004517Y-115277510D01*
X151143343Y-115086433D01*
X151250568Y-114875992D01*
X151323553Y-114651368D01*
X151360500Y-114418097D01*
X151360500Y-114181902D01*
X151323553Y-113948631D01*
X151250566Y-113724003D01*
X151143342Y-113513566D01*
X151004517Y-113322490D01*
X150837510Y-113155483D01*
X150802872Y-113130317D01*
X150760207Y-113074989D01*
X150754228Y-113005375D01*
X150786833Y-112943580D01*
X150802873Y-112929682D01*
X150837510Y-112904517D01*
X151004517Y-112737510D01*
X151143343Y-112546433D01*
X151250568Y-112335992D01*
X151323553Y-112111368D01*
X151344533Y-111978907D01*
X151360500Y-111878097D01*
X151360500Y-111641902D01*
X151323553Y-111408631D01*
X151250566Y-111184003D01*
X151194002Y-111072991D01*
X151143343Y-110973567D01*
X151004517Y-110782490D01*
X150837510Y-110615483D01*
X150802872Y-110590317D01*
X150760207Y-110534989D01*
X150754228Y-110465375D01*
X150786833Y-110403580D01*
X150802873Y-110389682D01*
X150837510Y-110364517D01*
X151004517Y-110197510D01*
X151143343Y-110006433D01*
X151250568Y-109795992D01*
X151323553Y-109571368D01*
X151336002Y-109492769D01*
X151360500Y-109338097D01*
X151360500Y-109101902D01*
X151323553Y-108868631D01*
X151250566Y-108644003D01*
X151194002Y-108532991D01*
X151143343Y-108433567D01*
X151004517Y-108242490D01*
X150837510Y-108075483D01*
X150802872Y-108050317D01*
X150760207Y-107994989D01*
X150754228Y-107925375D01*
X150786833Y-107863580D01*
X150802873Y-107849682D01*
X150837510Y-107824517D01*
X151004517Y-107657510D01*
X151143343Y-107466433D01*
X151250568Y-107255992D01*
X151323553Y-107031368D01*
X151360500Y-106798097D01*
X151360500Y-106561902D01*
X151323553Y-106328631D01*
X151289689Y-106224412D01*
X151250568Y-106104008D01*
X151250566Y-106104005D01*
X151250566Y-106104003D01*
X151182839Y-105971082D01*
X151143343Y-105893567D01*
X151004517Y-105702490D01*
X150837510Y-105535483D01*
X150802872Y-105510317D01*
X150760207Y-105454989D01*
X150754228Y-105385375D01*
X150786833Y-105323580D01*
X150802873Y-105309682D01*
X150837510Y-105284517D01*
X151004517Y-105117510D01*
X151143343Y-104926433D01*
X151250568Y-104715992D01*
X151323553Y-104491368D01*
X151360500Y-104258097D01*
X151360500Y-104021902D01*
X151323553Y-103788631D01*
X151250566Y-103564003D01*
X151143342Y-103353566D01*
X151094319Y-103286092D01*
X151053449Y-103229839D01*
X151029970Y-103164035D01*
X151045795Y-103095981D01*
X151094744Y-103048410D01*
X151094546Y-103048047D01*
X151095851Y-103047334D01*
X151095901Y-103047286D01*
X151096111Y-103047192D01*
X151102326Y-103043797D01*
X151102331Y-103043796D01*
X151217546Y-102957546D01*
X151303796Y-102842331D01*
X151354091Y-102707483D01*
X151360500Y-102647873D01*
X151360499Y-100552128D01*
X151354091Y-100492517D01*
X151303796Y-100357669D01*
X151303795Y-100357668D01*
X151303793Y-100357664D01*
X151217547Y-100242455D01*
X151217544Y-100242452D01*
X151102335Y-100156206D01*
X151102328Y-100156202D01*
X150967482Y-100105908D01*
X150967483Y-100105908D01*
X150907883Y-100099501D01*
X150907881Y-100099500D01*
X150907873Y-100099500D01*
X150907864Y-100099500D01*
X148812129Y-100099500D01*
X148812123Y-100099501D01*
X148752516Y-100105908D01*
X148617671Y-100156202D01*
X148617664Y-100156206D01*
X148502455Y-100242452D01*
X148502452Y-100242455D01*
X148416206Y-100357664D01*
X148416202Y-100357671D01*
X148365908Y-100492517D01*
X148359501Y-100552116D01*
X148359501Y-100552123D01*
X148359500Y-100552135D01*
X128500499Y-100552135D01*
X128500499Y-100552130D01*
X128500498Y-100552122D01*
X128500497Y-100552116D01*
X128494091Y-100492517D01*
X128443796Y-100357669D01*
X128443795Y-100357668D01*
X128443793Y-100357664D01*
X128357547Y-100242455D01*
X128357544Y-100242452D01*
X128242335Y-100156206D01*
X128242328Y-100156202D01*
X128107482Y-100105908D01*
X128107483Y-100105908D01*
X128047883Y-100099501D01*
X128047881Y-100099500D01*
X128047873Y-100099500D01*
X128047864Y-100099500D01*
X125952129Y-100099500D01*
X125952123Y-100099501D01*
X125892516Y-100105908D01*
X125757671Y-100156202D01*
X125757664Y-100156206D01*
X125642455Y-100242452D01*
X125642452Y-100242455D01*
X125556206Y-100357664D01*
X125556202Y-100357671D01*
X125505908Y-100492517D01*
X125499501Y-100552116D01*
X125499501Y-100552123D01*
X125499500Y-100552135D01*
X125499500Y-100725500D01*
X125479815Y-100792539D01*
X125427011Y-100838294D01*
X125375500Y-100849500D01*
X124386080Y-100849500D01*
X124241092Y-100878340D01*
X124241082Y-100878343D01*
X124104511Y-100934912D01*
X124104498Y-100934919D01*
X123981584Y-101017048D01*
X123981580Y-101017051D01*
X122359912Y-102638719D01*
X122298589Y-102672204D01*
X122252833Y-102673511D01*
X122038097Y-102639500D01*
X122038092Y-102639500D01*
X121801908Y-102639500D01*
X121801903Y-102639500D01*
X121568631Y-102676446D01*
X121344003Y-102749433D01*
X121133566Y-102856657D01*
X121024550Y-102935862D01*
X120942490Y-102995483D01*
X120942488Y-102995485D01*
X120942487Y-102995485D01*
X120775485Y-103162487D01*
X120775485Y-103162488D01*
X120775483Y-103162490D01*
X120715862Y-103244550D01*
X120636657Y-103353566D01*
X120529433Y-103564003D01*
X120456446Y-103788631D01*
X120419500Y-104021902D01*
X120419500Y-104258097D01*
X120456446Y-104491368D01*
X120529433Y-104715996D01*
X120636657Y-104926433D01*
X120775483Y-105117510D01*
X120942490Y-105284517D01*
X121133567Y-105423343D01*
X121195676Y-105454989D01*
X121344003Y-105530566D01*
X121344005Y-105530566D01*
X121344008Y-105530568D01*
X121464412Y-105569689D01*
X121568631Y-105603553D01*
X121801903Y-105640500D01*
X121801908Y-105640500D01*
X122038097Y-105640500D01*
X122271368Y-105603553D01*
X122495992Y-105530568D01*
X122706433Y-105423343D01*
X122897510Y-105284517D01*
X123064517Y-105117510D01*
X123203343Y-104926433D01*
X123310568Y-104715992D01*
X123383553Y-104491368D01*
X123420500Y-104258097D01*
X123420500Y-104021902D01*
X123391323Y-103837696D01*
X123386488Y-103807163D01*
X123395442Y-103737871D01*
X123421277Y-103700088D01*
X124734548Y-102386819D01*
X124795871Y-102353334D01*
X124822229Y-102350500D01*
X125375501Y-102350500D01*
X125442540Y-102370185D01*
X125488295Y-102422989D01*
X125499501Y-102474500D01*
X125499501Y-102647876D01*
X125505908Y-102707483D01*
X125556202Y-102842328D01*
X125556206Y-102842335D01*
X125642452Y-102957544D01*
X125642455Y-102957547D01*
X125757664Y-103043793D01*
X125757671Y-103043797D01*
X125892517Y-103094091D01*
X125892516Y-103094091D01*
X125899444Y-103094835D01*
X125952127Y-103100500D01*
X128047872Y-103100499D01*
X128107483Y-103094091D01*
X128242331Y-103043796D01*
X128357546Y-102957546D01*
X128443796Y-102842331D01*
X128494091Y-102707483D01*
X128500500Y-102647873D01*
X128500500Y-102556229D01*
X128520185Y-102489190D01*
X128572989Y-102443435D01*
X128642147Y-102433491D01*
X128705703Y-102462516D01*
X128712168Y-102468536D01*
X129039712Y-102796079D01*
X129388181Y-103144548D01*
X129421666Y-103205871D01*
X129424500Y-103232229D01*
X129424500Y-122827770D01*
X129404815Y-122894809D01*
X129388181Y-122915451D01*
X128630451Y-123673181D01*
X128569128Y-123706666D01*
X128542770Y-123709500D01*
X110852229Y-123709500D01*
X110785190Y-123689815D01*
X110764548Y-123673181D01*
X109808548Y-122717180D01*
X109775063Y-122655857D01*
X109780047Y-122586165D01*
X109821919Y-122530232D01*
X109887383Y-122505815D01*
X109896229Y-122505499D01*
X110147871Y-122505499D01*
X110147872Y-122505499D01*
X110207483Y-122499091D01*
X110342331Y-122448796D01*
X110457546Y-122362546D01*
X110543796Y-122247331D01*
X110594091Y-122112483D01*
X110600500Y-122052873D01*
X110600499Y-117457128D01*
X110594091Y-117397517D01*
X110551275Y-117282722D01*
X110543797Y-117262671D01*
X110543793Y-117262664D01*
X110457547Y-117147455D01*
X110457544Y-117147452D01*
X110342335Y-117061206D01*
X110342328Y-117061202D01*
X110207482Y-117010908D01*
X110207483Y-117010908D01*
X110147883Y-117004501D01*
X110147881Y-117004500D01*
X110147873Y-117004500D01*
X110147864Y-117004500D01*
X107552129Y-117004500D01*
X107552123Y-117004501D01*
X107492516Y-117010908D01*
X107357671Y-117061202D01*
X107357664Y-117061206D01*
X107242455Y-117147452D01*
X107242452Y-117147455D01*
X107156206Y-117262664D01*
X107156202Y-117262671D01*
X107105908Y-117397517D01*
X107099501Y-117457116D01*
X107099501Y-117457123D01*
X107099500Y-117457135D01*
X104640500Y-117457135D01*
X104640500Y-106561902D01*
X105179500Y-106561902D01*
X105179500Y-106798097D01*
X105216446Y-107031368D01*
X105289433Y-107255996D01*
X105363653Y-107401659D01*
X105396657Y-107466433D01*
X105535483Y-107657510D01*
X105702490Y-107824517D01*
X105737127Y-107849683D01*
X105779792Y-107905013D01*
X105785771Y-107974626D01*
X105753165Y-108036421D01*
X105737130Y-108050315D01*
X105719365Y-108063222D01*
X105702488Y-108075484D01*
X105535485Y-108242487D01*
X105535485Y-108242488D01*
X105535483Y-108242490D01*
X105475862Y-108324550D01*
X105396657Y-108433566D01*
X105289433Y-108644003D01*
X105216446Y-108868631D01*
X105179500Y-109101902D01*
X105179500Y-109338097D01*
X105216446Y-109571368D01*
X105289433Y-109795996D01*
X105363653Y-109941659D01*
X105396657Y-110006433D01*
X105535483Y-110197510D01*
X105702490Y-110364517D01*
X105875202Y-110490000D01*
X105878386Y-110492313D01*
X105921051Y-110547643D01*
X105929500Y-110592631D01*
X105929500Y-111833918D01*
X105929500Y-111833920D01*
X105929499Y-111833920D01*
X105958340Y-111978907D01*
X105958343Y-111978917D01*
X106014914Y-112115492D01*
X106047812Y-112164727D01*
X106047813Y-112164730D01*
X106097046Y-112238414D01*
X106097052Y-112238421D01*
X112513181Y-118654548D01*
X112546666Y-118715871D01*
X112549500Y-118742229D01*
X112549500Y-120869741D01*
X112550917Y-120880500D01*
X112579452Y-121097238D01*
X112579453Y-121097240D01*
X112638842Y-121318887D01*
X112726650Y-121530876D01*
X112726657Y-121530890D01*
X112841392Y-121729617D01*
X112981081Y-121911661D01*
X112981089Y-121911670D01*
X113143330Y-122073911D01*
X113143338Y-122073918D01*
X113325382Y-122213607D01*
X113325385Y-122213608D01*
X113325388Y-122213611D01*
X113524112Y-122328344D01*
X113524117Y-122328346D01*
X113524123Y-122328349D01*
X113606678Y-122362544D01*
X113736113Y-122416158D01*
X113957762Y-122475548D01*
X114174312Y-122504057D01*
X114185250Y-122505498D01*
X114185266Y-122505500D01*
X114185273Y-122505500D01*
X114414727Y-122505500D01*
X114414734Y-122505500D01*
X114642238Y-122475548D01*
X114863887Y-122416158D01*
X115075888Y-122328344D01*
X115274612Y-122213611D01*
X115456661Y-122073919D01*
X115456665Y-122073914D01*
X115456670Y-122073911D01*
X115618911Y-121911670D01*
X115618914Y-121911665D01*
X115618919Y-121911661D01*
X115758611Y-121729612D01*
X115873344Y-121530888D01*
X115961158Y-121318887D01*
X116020548Y-121097238D01*
X116050500Y-120869734D01*
X116050500Y-118640266D01*
X116020548Y-118412762D01*
X115961158Y-118191113D01*
X115911190Y-118070480D01*
X115873349Y-117979123D01*
X115873346Y-117979117D01*
X115873344Y-117979112D01*
X115758611Y-117780388D01*
X115758608Y-117780385D01*
X115758607Y-117780382D01*
X115618918Y-117598338D01*
X115618911Y-117598330D01*
X115456670Y-117436089D01*
X115456661Y-117436081D01*
X115274617Y-117296392D01*
X115216210Y-117262671D01*
X115075888Y-117181656D01*
X115075876Y-117181650D01*
X114863887Y-117093842D01*
X114642238Y-117034452D01*
X114604215Y-117029446D01*
X114414741Y-117004500D01*
X114414734Y-117004500D01*
X114185266Y-117004500D01*
X114185258Y-117004500D01*
X113968715Y-117033009D01*
X113957762Y-117034452D01*
X113864076Y-117059554D01*
X113736112Y-117093842D01*
X113524123Y-117181650D01*
X113524108Y-117181657D01*
X113377591Y-117266249D01*
X113309690Y-117282722D01*
X113243663Y-117259869D01*
X113227910Y-117246543D01*
X107466819Y-111485451D01*
X107433334Y-111424128D01*
X107430500Y-111397770D01*
X107430500Y-110592631D01*
X107450185Y-110525592D01*
X107481614Y-110492313D01*
X107484798Y-110490000D01*
X107657510Y-110364517D01*
X107824517Y-110197510D01*
X107952313Y-110021613D01*
X108007643Y-109978949D01*
X108052631Y-109970500D01*
X109293920Y-109970500D01*
X109391462Y-109951096D01*
X109438913Y-109941658D01*
X109575495Y-109885084D01*
X109624729Y-109852186D01*
X109698416Y-109802952D01*
X112342951Y-107158416D01*
X112425084Y-107035495D01*
X112481658Y-106898913D01*
X112481658Y-106898912D01*
X112510500Y-106753918D01*
X112510500Y-105512631D01*
X112512041Y-105507381D01*
X112510955Y-105502020D01*
X112521780Y-105474215D01*
X112530185Y-105445592D01*
X112534845Y-105440657D01*
X112536304Y-105436911D01*
X112561614Y-105412313D01*
X112579540Y-105399289D01*
X112717617Y-105298969D01*
X112783420Y-105275491D01*
X112851474Y-105291316D01*
X112900169Y-105341422D01*
X112914500Y-105399289D01*
X112914500Y-109492769D01*
X112894815Y-109559808D01*
X112878181Y-109580450D01*
X112199911Y-110258719D01*
X112138588Y-110292204D01*
X112092832Y-110293511D01*
X111878097Y-110259500D01*
X111878092Y-110259500D01*
X111641908Y-110259500D01*
X111641903Y-110259500D01*
X111408631Y-110296446D01*
X111184003Y-110369433D01*
X110973566Y-110476657D01*
X110921307Y-110514626D01*
X110782490Y-110615483D01*
X110782488Y-110615485D01*
X110782487Y-110615485D01*
X110615485Y-110782487D01*
X110615485Y-110782488D01*
X110615483Y-110782490D01*
X110555862Y-110864550D01*
X110476657Y-110973566D01*
X110369433Y-111184003D01*
X110296446Y-111408631D01*
X110259500Y-111641902D01*
X110259500Y-111878097D01*
X110296446Y-112111368D01*
X110369433Y-112335996D01*
X110458348Y-112510500D01*
X110476657Y-112546433D01*
X110615483Y-112737510D01*
X110782490Y-112904517D01*
X110973567Y-113043343D01*
X111035676Y-113074989D01*
X111184003Y-113150566D01*
X111184005Y-113150566D01*
X111184008Y-113150568D01*
X111304412Y-113189689D01*
X111408631Y-113223553D01*
X111641903Y-113260500D01*
X111641908Y-113260500D01*
X111878097Y-113260500D01*
X112111368Y-113223553D01*
X112335992Y-113150568D01*
X112546433Y-113043343D01*
X112737510Y-112904517D01*
X112904517Y-112737510D01*
X113043343Y-112546433D01*
X113150568Y-112335992D01*
X113223553Y-112111368D01*
X113244533Y-111978907D01*
X113260500Y-111878097D01*
X113260500Y-111646591D01*
X113260500Y-111641908D01*
X113260499Y-111641902D01*
X120419500Y-111641902D01*
X120419500Y-111878097D01*
X120456446Y-112111368D01*
X120529433Y-112335996D01*
X120618348Y-112510500D01*
X120636657Y-112546433D01*
X120775483Y-112737510D01*
X120942490Y-112904517D01*
X121133567Y-113043343D01*
X121195676Y-113074989D01*
X121344003Y-113150566D01*
X121344005Y-113150566D01*
X121344008Y-113150568D01*
X121464412Y-113189689D01*
X121568631Y-113223553D01*
X121801903Y-113260500D01*
X121801908Y-113260500D01*
X122038097Y-113260500D01*
X122271368Y-113223553D01*
X122495992Y-113150568D01*
X122706433Y-113043343D01*
X122897510Y-112904517D01*
X123064517Y-112737510D01*
X123192313Y-112561613D01*
X123247643Y-112518949D01*
X123292631Y-112510500D01*
X125627369Y-112510500D01*
X125694408Y-112530185D01*
X125727685Y-112561613D01*
X125855483Y-112737510D01*
X126022490Y-112904517D01*
X126057127Y-112929683D01*
X126099792Y-112985013D01*
X126105771Y-113054626D01*
X126073165Y-113116421D01*
X126057130Y-113130315D01*
X126039365Y-113143222D01*
X126022488Y-113155484D01*
X125855485Y-113322487D01*
X125855485Y-113322488D01*
X125855483Y-113322490D01*
X125795862Y-113404550D01*
X125716657Y-113513566D01*
X125609433Y-113724003D01*
X125536446Y-113948631D01*
X125499500Y-114181902D01*
X125499500Y-114418097D01*
X125536446Y-114651368D01*
X125609433Y-114875996D01*
X125716657Y-115086433D01*
X125855483Y-115277510D01*
X126022490Y-115444517D01*
X126057127Y-115469683D01*
X126099792Y-115525013D01*
X126105771Y-115594626D01*
X126073165Y-115656421D01*
X126057130Y-115670315D01*
X126039365Y-115683222D01*
X126022488Y-115695484D01*
X125855485Y-115862487D01*
X125855485Y-115862488D01*
X125855483Y-115862490D01*
X125795862Y-115944550D01*
X125716657Y-116053566D01*
X125609433Y-116264003D01*
X125536446Y-116488631D01*
X125499500Y-116721902D01*
X125499500Y-116958097D01*
X125536446Y-117191368D01*
X125609433Y-117415996D01*
X125630392Y-117457129D01*
X125716657Y-117626433D01*
X125855483Y-117817510D01*
X126022490Y-117984517D01*
X126057127Y-118009683D01*
X126099792Y-118065013D01*
X126105771Y-118134626D01*
X126073165Y-118196421D01*
X126057130Y-118210315D01*
X126039365Y-118223222D01*
X126022488Y-118235484D01*
X125855485Y-118402487D01*
X125855485Y-118402488D01*
X125855483Y-118402490D01*
X125795862Y-118484550D01*
X125716657Y-118593566D01*
X125609433Y-118804003D01*
X125536446Y-119028631D01*
X125499500Y-119261902D01*
X125499500Y-119498097D01*
X125536446Y-119731368D01*
X125609433Y-119955996D01*
X125716657Y-120166433D01*
X125855483Y-120357510D01*
X126022490Y-120524517D01*
X126213567Y-120663343D01*
X126312991Y-120714002D01*
X126424003Y-120770566D01*
X126424005Y-120770566D01*
X126424008Y-120770568D01*
X126544412Y-120809689D01*
X126648631Y-120843553D01*
X126881903Y-120880500D01*
X126881908Y-120880500D01*
X127118097Y-120880500D01*
X127351368Y-120843553D01*
X127575992Y-120770568D01*
X127786433Y-120663343D01*
X127977510Y-120524517D01*
X128144517Y-120357510D01*
X128283343Y-120166433D01*
X128390568Y-119955992D01*
X128463553Y-119731368D01*
X128500500Y-119498097D01*
X128500500Y-119261902D01*
X128463553Y-119028631D01*
X128390566Y-118804003D01*
X128283342Y-118593566D01*
X128144517Y-118402490D01*
X127977510Y-118235483D01*
X127942872Y-118210317D01*
X127900207Y-118154989D01*
X127894228Y-118085375D01*
X127926833Y-118023580D01*
X127942873Y-118009682D01*
X127977510Y-117984517D01*
X128144517Y-117817510D01*
X128283343Y-117626433D01*
X128390568Y-117415992D01*
X128463553Y-117191368D01*
X128470509Y-117147452D01*
X128500500Y-116958097D01*
X128500500Y-116721902D01*
X128463553Y-116488631D01*
X128390566Y-116264003D01*
X128283342Y-116053566D01*
X128144517Y-115862490D01*
X127977510Y-115695483D01*
X127942872Y-115670317D01*
X127900207Y-115614989D01*
X127894228Y-115545375D01*
X127926833Y-115483580D01*
X127942873Y-115469682D01*
X127977510Y-115444517D01*
X128144517Y-115277510D01*
X128283343Y-115086433D01*
X128390568Y-114875992D01*
X128463553Y-114651368D01*
X128500500Y-114418097D01*
X128500500Y-114181902D01*
X128463553Y-113948631D01*
X128390566Y-113724003D01*
X128283342Y-113513566D01*
X128144517Y-113322490D01*
X127977510Y-113155483D01*
X127942872Y-113130317D01*
X127900207Y-113074989D01*
X127894228Y-113005375D01*
X127926833Y-112943580D01*
X127942873Y-112929682D01*
X127977510Y-112904517D01*
X128144517Y-112737510D01*
X128283343Y-112546433D01*
X128390568Y-112335992D01*
X128463553Y-112111368D01*
X128484533Y-111978907D01*
X128500500Y-111878097D01*
X128500500Y-111641902D01*
X128463553Y-111408631D01*
X128390566Y-111184003D01*
X128334002Y-111072991D01*
X128283343Y-110973567D01*
X128144517Y-110782490D01*
X127977510Y-110615483D01*
X127942872Y-110590317D01*
X127900207Y-110534989D01*
X127894228Y-110465375D01*
X127926833Y-110403580D01*
X127942873Y-110389682D01*
X127977510Y-110364517D01*
X128144517Y-110197510D01*
X128283343Y-110006433D01*
X128390568Y-109795992D01*
X128463553Y-109571368D01*
X128476002Y-109492769D01*
X128500500Y-109338097D01*
X128500500Y-109101902D01*
X128463553Y-108868631D01*
X128390566Y-108644003D01*
X128334002Y-108532991D01*
X128283343Y-108433567D01*
X128144517Y-108242490D01*
X127977510Y-108075483D01*
X127942872Y-108050317D01*
X127900207Y-107994989D01*
X127894228Y-107925375D01*
X127926833Y-107863580D01*
X127942873Y-107849682D01*
X127977510Y-107824517D01*
X128144517Y-107657510D01*
X128283343Y-107466433D01*
X128390568Y-107255992D01*
X128463553Y-107031368D01*
X128500500Y-106798097D01*
X128500500Y-106561902D01*
X128463553Y-106328631D01*
X128429689Y-106224412D01*
X128390568Y-106104008D01*
X128390566Y-106104005D01*
X128390566Y-106104003D01*
X128322839Y-105971082D01*
X128283343Y-105893567D01*
X128144517Y-105702490D01*
X127977510Y-105535483D01*
X127786433Y-105396657D01*
X127764291Y-105385375D01*
X127575996Y-105289433D01*
X127351368Y-105216446D01*
X127118097Y-105179500D01*
X127118092Y-105179500D01*
X126881908Y-105179500D01*
X126881903Y-105179500D01*
X126648631Y-105216446D01*
X126424003Y-105289433D01*
X126213566Y-105396657D01*
X126161307Y-105434626D01*
X126022490Y-105535483D01*
X126022488Y-105535485D01*
X126022487Y-105535485D01*
X125855485Y-105702487D01*
X125855485Y-105702488D01*
X125855483Y-105702490D01*
X125821104Y-105749809D01*
X125716657Y-105893566D01*
X125609433Y-106104003D01*
X125536446Y-106328631D01*
X125499500Y-106561902D01*
X125499500Y-106798097D01*
X125536446Y-107031368D01*
X125609433Y-107255996D01*
X125683653Y-107401659D01*
X125716657Y-107466433D01*
X125855483Y-107657510D01*
X126022490Y-107824517D01*
X126057127Y-107849683D01*
X126099792Y-107905013D01*
X126105771Y-107974626D01*
X126073165Y-108036421D01*
X126057130Y-108050315D01*
X126039365Y-108063222D01*
X126022488Y-108075484D01*
X125855485Y-108242487D01*
X125855485Y-108242488D01*
X125855483Y-108242490D01*
X125795862Y-108324550D01*
X125716657Y-108433566D01*
X125609433Y-108644003D01*
X125536446Y-108868631D01*
X125499500Y-109101902D01*
X125499500Y-109338097D01*
X125536446Y-109571368D01*
X125609433Y-109795996D01*
X125683653Y-109941659D01*
X125716657Y-110006433D01*
X125855483Y-110197510D01*
X126022490Y-110364517D01*
X126057127Y-110389683D01*
X126099792Y-110445013D01*
X126105771Y-110514626D01*
X126073165Y-110576421D01*
X126057130Y-110590315D01*
X126053943Y-110592631D01*
X126022488Y-110615484D01*
X125855485Y-110782487D01*
X125855485Y-110782488D01*
X125855483Y-110782490D01*
X125727687Y-110958386D01*
X125672357Y-111001051D01*
X125627369Y-111009500D01*
X123292631Y-111009500D01*
X123225592Y-110989815D01*
X123192313Y-110958386D01*
X123064517Y-110782490D01*
X122897510Y-110615483D01*
X122706433Y-110476657D01*
X122684291Y-110465375D01*
X122495996Y-110369433D01*
X122271368Y-110296446D01*
X122038097Y-110259500D01*
X122038092Y-110259500D01*
X121801908Y-110259500D01*
X121801903Y-110259500D01*
X121568631Y-110296446D01*
X121344003Y-110369433D01*
X121133566Y-110476657D01*
X121081307Y-110514626D01*
X120942490Y-110615483D01*
X120942488Y-110615485D01*
X120942487Y-110615485D01*
X120775485Y-110782487D01*
X120775485Y-110782488D01*
X120775483Y-110782490D01*
X120715862Y-110864550D01*
X120636657Y-110973566D01*
X120529433Y-111184003D01*
X120456446Y-111408631D01*
X120419500Y-111641902D01*
X113260499Y-111641902D01*
X113226424Y-111426759D01*
X113230987Y-111392346D01*
X113235442Y-111357872D01*
X113235586Y-111357660D01*
X113235608Y-111357498D01*
X113236072Y-111356949D01*
X113261277Y-111320089D01*
X114247952Y-110333416D01*
X114297340Y-110259500D01*
X114330084Y-110210495D01*
X114386658Y-110073913D01*
X114412966Y-109941658D01*
X114415500Y-109928920D01*
X114415500Y-102796081D01*
X114415499Y-102796080D01*
X114406221Y-102749432D01*
X114386659Y-102651088D01*
X114332408Y-102520117D01*
X114330764Y-102515522D01*
X114247954Y-102391588D01*
X114247953Y-102391587D01*
X114247951Y-102391584D01*
X114143416Y-102287049D01*
X113508421Y-101652052D01*
X113508414Y-101652046D01*
X113434729Y-101602812D01*
X113434729Y-101602813D01*
X113385491Y-101569913D01*
X113248917Y-101513343D01*
X113248907Y-101513340D01*
X113103920Y-101484500D01*
X113103918Y-101484500D01*
X110563917Y-101484500D01*
X110416082Y-101484500D01*
X110416080Y-101484500D01*
X110271092Y-101513340D01*
X110271082Y-101513343D01*
X110134511Y-101569912D01*
X110134498Y-101569919D01*
X110011584Y-101652048D01*
X110011580Y-101652051D01*
X108637050Y-103026581D01*
X108637048Y-103026584D01*
X108625548Y-103043796D01*
X108625546Y-103043797D01*
X108625546Y-103043798D01*
X108554916Y-103149503D01*
X108554914Y-103149506D01*
X108498343Y-103286082D01*
X108498340Y-103286092D01*
X108469500Y-103431079D01*
X108469500Y-105682770D01*
X108460855Y-105712210D01*
X108454332Y-105742197D01*
X108450577Y-105747212D01*
X108449815Y-105749809D01*
X108433181Y-105770451D01*
X108310451Y-105893181D01*
X108249128Y-105926666D01*
X108222770Y-105929500D01*
X108052631Y-105929500D01*
X107985592Y-105909815D01*
X107952313Y-105878386D01*
X107824517Y-105702490D01*
X107657510Y-105535483D01*
X107466433Y-105396657D01*
X107444291Y-105385375D01*
X107255996Y-105289433D01*
X107031368Y-105216446D01*
X106798097Y-105179500D01*
X106798092Y-105179500D01*
X106561908Y-105179500D01*
X106561903Y-105179500D01*
X106328631Y-105216446D01*
X106104003Y-105289433D01*
X105893566Y-105396657D01*
X105841307Y-105434626D01*
X105702490Y-105535483D01*
X105702488Y-105535485D01*
X105702487Y-105535485D01*
X105535485Y-105702487D01*
X105535485Y-105702488D01*
X105535483Y-105702490D01*
X105501104Y-105749809D01*
X105396657Y-105893566D01*
X105289433Y-106104003D01*
X105216446Y-106328631D01*
X105179500Y-106561902D01*
X104640500Y-106561902D01*
X104640500Y-99684500D01*
X104660185Y-99617461D01*
X104712989Y-99571706D01*
X104764500Y-99560500D01*
X151775500Y-99560500D01*
X151842539Y-99580185D01*
G37*
%TD.AperFunction*%
%TD*%
M02*
